<?xml version="1.0" encoding="utf-8"?>
<!-- Generator: Adobe Illustrator 19.0.0, SVG Export Plug-In . SVG Version: 6.00 Build 0)  -->
<svg version="1.1" id="layer" xmlns="http://www.w3.org/2000/svg" xmlns:xlink="http://www.w3.org/1999/xlink" x="0px" y="0px"
	 viewBox="-153 -46 652 652" style="enable-background:new -153 -46 652 652;" xml:space="preserve">
<style type="text/css">
	.st0{fill:#A39160;}
</style>
<path class="st0" d="M-14,471.7v19.9h28.1v-19.9h10.3v52.1H14.1v-21.9H-14v21.9h-10.4v-52.1H-14z M43.1,497.8
	c0-14.5,11.6-27.7,31.9-27.7c20.7,0,31.9,12.8,31.9,27.7c0,14.5-11.6,27.7-31.9,27.7C54.7,525.5,43.1,512.2,43.1,497.8z M96.5,497.8
	c0-9.1-8.7-17.4-21.5-17.4c-12.8,0-21.5,8.3-21.5,17.4c0,9.1,8.7,17.4,21.5,17.4C87.8,515.1,96.5,506.9,96.5,497.8z M166.4,471.7
	V482h-19v41.4H137V482h-19v-10.4C118,471.7,166.4,471.7,166.4,471.7z M232.7,471.7V482h-36v9.5h19v10.3h-19v11.2h36.8v10.4h-47.2
	v-52.2h46.4L232.7,471.7L232.7,471.7z M267,471.7v41.8h29.8v10.3h-40.2v-52.1H267L267,471.7z M314.6,507.3
	c9.1,5.8,17.8,7.9,26.9,7.9c5.4,0,14.1-1.2,14.1-7c0-4.1-4.5-5.4-7.9-5.4l-15.7-0.4c-12.8-0.4-19-7.9-19-15.7
	c0-7.9,5.8-16.2,24.4-16.2c13.7,0,21.9,5.4,25.2,7l-4.5,9.1c-4.1-2.1-11.6-5.8-21.9-5.8c-5.4,0-12.4,1.3-12.4,5.8c0,4.1,5.8,5,9.1,5
	l13.7,0.4c12,0.4,19.4,5.4,19.4,16.5c0,9.5-7.4,17-24.4,17c-14.1,0-24.4-3.7-31.9-9.1L314.6,507.3L314.6,507.3z M-3.3,323.5
	c-5-0.8-12-0.8-16.2-0.8c-14.9,0-27.7,4.5-36.4,13.2c-6.6,6.2-10.3,14.9-10.3,24.4c0,9.9,3.7,18.7,10.3,25.7
	c8.7,8.3,21.1,13.2,35.6,13.2c9.1,0,14.9-0.8,28.1-4.5c0.4,0,0.4-0.4,0.4-0.4l1.7-16.1c0-0.4,0-0.4-0.4-0.4H9.1
	c-5.4,6.6-14.9,10.4-25.7,10.4c-9.5,0-17.4-2.9-22.8-8.3c-5-4.9-7.5-11.6-7.5-19.5c0-8.3,2.9-15.3,8.3-20.3
	c5.4-5.4,13.2-8.3,22.3-8.3c10.3,0,17.8,2.9,22.8,9.1c0,0,0.4,0.4,0.4,0c0.4,0,0.4-0.4,0.4-0.4v-18.6c0,0,0-0.4-0.4-0.4H6.7
	c-1.2,1.7-2.5,2.1-4.5,2.1L-3.3,323.5 M79.5,385.2c2.9,4.6,6.2,7.9,11.2,12.4h23.6c0.4,0,0.4,0,0.4-0.4s0-0.4-0.4-0.4
	c-6.6-2.5-9.1-4.1-14.1-10.8l-8.7-10.4c-0.4-0.8-1.2-1.3-2.1-2.5c-2.1-2.5-4.6-5.8-7.9-8.3c17-3.3,19-14.1,19-21.9
	c0-5-1.7-9.1-5-12.4c-4.5-4.5-12.4-7-23.2-7H34c0,0-0.4,0-0.4,0.4c0,0.4,0,0.4,0.4,0.4c7,2.1,7.9,3.3,7.9,10.3v51.8
	c0,6.6-0.8,7.9-7.5,9.9l-0.4,0.4c0,0.4,0.4,0.4,0.4,0.4H65c0.4,0,0.4,0,0.4-0.4s0-0.4-0.4-0.4c-7-2.1-7.9-3.3-7.9-9.9v-20.3h5
	c2.9,1.3,9.1,7.5,12.4,11.2L79.5,385.2 M57.1,334.7h11.2c6.2,0,11.6,1.7,14.5,4.6c1.7,1.6,2.5,3.7,2.5,6.2c0,2.5-0.8,4.6-2.1,5.8
	c-2.5,2.5-7.5,3.7-14.9,3.7H57.1V334.7z M165.6,321.9c-12,0-22.3,3.7-29.8,10.8c-7.5,7-11.6,16.6-11.6,27.7
	c0,10.4,4.1,20.3,11.2,27.8c7.9,7.8,18.2,12,30.2,12c11.6,0,22.3-4.1,30.2-12c7.5-7.1,11.2-17,11.2-27.8c0-10.8-3.7-19.8-10.4-26.9
	C188.8,326,178,321.9,165.6,321.9 M190,360.8c0,7.9-2.5,14.9-7,19.9c-4.6,5-10.8,7.9-17.8,7.9c-6.2,0-11.6-2.5-16.1-6.6
	c-5.4-5.4-8.3-12.8-8.3-21.1c0-7.9,2.5-14.9,7.9-19.9c4.5-4.5,10.8-7,17-7c6.6,0,12.4,2.1,16.6,6.2C187.1,345,190,352.1,190,360.8
	 M380,323.5c-0.4,0-0.4,0-0.4,0.4c0,0.4,0,0.4,0.4,0.4c5,1.6,5.8,2.9,5.8,10.3v26.1l-32.7-37.3h-22.4c0,0-0.4,0-0.4,0.4
	c0,0.4,0,0.4,0.4,0.4c6.2,2.5,7.9,5.4,7.9,13.2v48.9c0,6.6-0.8,7.9-6.2,9.9c-0.4,0-0.4,0.4-0.4,0.4l0.4,0.4h24.8c0,0,0.4,0,0.4-0.4
	s0-0.4-0.4-0.4c-5.4-2.1-6.2-3.3-6.2-9.9V345l46.4,54.2c0,0,0.4,0.4,0.4,0l0.4-0.4v-63.7c0-7.9,0.4-8.7,5.4-10.8
	c0.4,0,0.4-0.4,0.4-0.4l-0.4-0.4C403.6,323.5,380,323.5,380,323.5z M296,328c0-0.4,0.4-0.8,0.4-0.8c0-0.8-0.4-1.2-2.1-2.5
	c-0.4,0-0.4-0.4-0.4-0.4l0.4-0.4h19.5c0,0,0.4,0,0.4,0.4c0,0.4,0,0.4-0.4,0.4c-3.3,1.2-4.5,2.1-5.8,5l-26.5,69.5
	c0,0.4-0.4,0.4-0.4,0.4h-0.4l-16.2-36.9c-1.7,4.6-14.9,36.9-14.9,36.9l-0.4,0.4c0,0-0.4,0-0.4-0.4l-29.4-69.6
	c-1.2-2.9-2.1-3.7-5.8-4.9l-0.4-0.4l0.4-0.4h23.6c0,0,0.4,0,0.4,0.4c0,0.4,0,0.4-0.4,0.4c-1.7,0.8-2.1,1.6-2.1,2.5
	c0,0.4,14.9,37.3,14.9,37.3l7-18.2l-7-17c-1.7-2.5-2.5-2.9-5.8-4.5l-0.4-0.4c0-0.4,0-0.4,0.4-0.4h17c0,0,0.4,0,0.4,0.4l3.3,8.3
	l3.3-8.3c0-0.4,0.4-0.4,0.4-0.4h14.5c0.4,0,0.4,0,0.4,0.4c0,0.4,0,0.4-0.4,0.4c-3.7,1.2-5.8,2.9-6.6,4.9l-3.3,12l9.1,22.3L296,328
	 M119.7,209.3c5,0,9.1-4.1,9.1-9.1c0-5-4.1-9.1-9.1-9.1s-9.1,4.1-9.1,9.1C110.5,205.5,114.7,209.7,119.7,209.3 M122.1,177.8
	c0-5.4-4.5-9.5-9.5-9.5c-5.4,0-9.5,4.5-9.5,9.5c0,5.4,4.5,9.5,9.9,9.5C118,187.3,122.1,183.2,122.1,177.8 M100.2,219.6
	c5,0,8.7-3.7,8.7-8.7c0-4.5-3.7-8.7-8.7-8.7c-4.6,0-8.7,3.7-8.7,8.7C91.5,215.9,95.2,219.6,100.2,219.6 M91.1,200.2
	c5,0,9.1-4.1,9.1-9.1c0-5-4.1-9.1-9.1-9.1c-5,0-9.1,4.1-9.1,9.1C82,196,86.1,200.2,91.1,200.2 M90.3,167.1c0-5.4-4.1-9.5-9.5-9.5
	s-9.5,4.1-9.5,9.5s4.1,9.5,9.5,9.5C85.7,176.6,90.3,172,90.3,167.1 M72,185.3c0-5.4-4.1-9.5-9.5-9.5s-9.5,4.1-9.5,9.5
	s4.1,9.5,9.5,9.5C67.5,195.2,72,190.6,72,185.3 M64.6,148c5.8,0,10.3-4.5,10.3-10.4c0-5.8-4.5-10.3-10.3-10.3s-10.3,4.5-10.3,10.3
	C53.8,143.5,58.8,148,64.6,148 M43.9,150.9c-5.8,0-10.3,4.5-10.3,10.4c0,5.8,4.6,10.3,10.3,10.3c5.8,0,10.4-4.6,10.4-10.3
	C54.7,155.5,49.7,150.9,43.9,150.9 M79.9,117.4c0,6.2,5,11.2,11.2,11.2c6.2,0,11.2-4.9,10.8-11.2c0-6.2-5-11.2-11.2-10.8
	C84.9,106.6,79.9,111.6,79.9,117.4 M17.8,128.1c-6.2,0-11.2,5-11.2,11.2c0,6.2,5,11.2,11.2,11.2s11.2-5,11.2-11.2
	C29,133.1,24,128.1,17.8,128.1 M123.8,111.2c6.6,0,11.6-5.4,11.2-12c0-6.2-5.4-11.6-11.6-11.6c-6.2,0-11.6,5.4-11.2,12
	C112.2,106.2,117.6,111.2,123.8,111.2 M165.6,76c-7,0-12.8,5.8-12.8,12.8s5.8,12.8,12.8,12.8c7,0,12.8-5.8,12.8-12.8
	S172.6,76,165.6,76 M165.6,117c-6.6,0-11.6,5.4-11.6,11.6c0,6.6,5.4,11.6,11.6,11.6c6.6,0,11.6-5,11.6-11.6
	C177.2,122.4,171.8,117,165.6,117 M165.6,149.2c-6.2,0-11.2,5-11.2,11.2c0,6.2,5,11.2,11.2,11.2s11.2-5,11.2-11.2
	C176.8,154.2,171.8,149.2,165.6,149.2 M127.1,167.5c0,5.4,4.5,9.9,10.3,9.9c5.4,0,9.9-5,9.9-10.3c0-5.4-4.5-9.9-10.3-9.9
	C131.2,157.1,127.1,161.7,127.1,167.5 M94.4,150.9c0,5.4,4.5,9.9,9.9,9.9c5.8,0,9.9-4.6,9.9-9.9s-4.5-9.9-9.9-9.9
	C98.5,140.6,94,145.5,94.4,150.9 M121.3,137.7c0,5.8,5,10.4,10.8,10.4c5.8,0,10.4-5,10.4-10.8s-5-10.3-10.8-10.3
	C125.9,127.3,120.9,131.9,121.3,137.7 M131.7,192.3c0,5.4,4.5,9.5,9.9,9.5s9.5-4.6,9.1-9.9c0-5.4-4.5-9.5-9.5-9.1
	C135.4,182.8,131.2,186.9,131.7,192.3 M135,214.7c0,5.4,4.5,9.5,9.5,9.1c5.4,0,9.5-4.6,9.1-9.5c0-5.4-4.5-9.5-9.9-9.1
	C138.7,205.1,134.5,209.3,135,214.7 M165.6,176.6c-5.8,0-10.8,4.6-10.8,10.4s4.5,10.3,10.8,10.3c5.8,0,10.3-4.5,10.3-10.3
	S171.4,176.6,165.6,176.6 M165.6,201.4c-5.4,0-9.9,4.6-9.9,9.9c0,5.4,4.5,9.9,9.9,9.9s9.9-4.5,9.9-9.9
	C175.5,206,171,201.4,165.6,201.4 M71.2,95.4c6.6,0,12-5.4,12-12.4c0-6.6-5.4-12-12.4-12c-6.6,0-12,5.4-12,12
	C59.2,90.1,64.6,95.4,71.2,95.4 M211.5,191.5c-5,0-9.1,4.1-9.1,9.1c0,5,4.1,9.1,9.1,9.1s9.1-3.7,9.1-9.1
	C220.7,195.6,216.5,191.5,211.5,191.5 M228.1,178.2c0-5.4-4.1-9.5-9.5-9.5s-9.5,4.1-9.5,9.5s4.1,9.5,9.5,9.5
	C223.5,187.7,227.7,183.2,228.1,178.2 M231,219.6c5,0,8.7-3.7,8.7-8.7c0-4.5-3.7-8.7-8.7-8.7c-5,0-8.7,3.7-8.7,8.7
	C222.3,215.9,226,219.6,231,219.6 M248.8,191c0-5-4.1-9.1-9.1-9.1s-9.1,4.1-9.1,9.1c0,5,4.1,9.1,9.1,9.1
	C245.1,200.2,248.8,196,248.8,191 M256.7,196.9c-5.4,0-9.5,4.1-9.5,9.5c0,2.9,1.7,5.4,3.7,7c-0.8-0.4-1.6-0.4-2.9-0.4
	c-5,0-9.1,4.1-9.1,9.1c0,2.5,0.8,4.5,2.5,6.2h-0.8c-4.5,0-8.7,3.7-8.7,8.7c0,1.2,0.4,2.5,0.8,3.7c-2.1,0.8-4.1,2.5-5,5
	c0.4-0.8,0.4-1.7,0.4-2.5c0-2.5-1.2-4.6-2.5-6.2c4.1-0.8,6.6-4.1,6.6-8.3c0-5-3.7-8.7-8.7-8.7c-4.5,0-8.7,3.7-8.7,8.7
	c0,2.1,0.8,4.1,2.1,5.8c-3.3,0.8-5.8,2.9-6.6,5.8v-2.1c0-3.3-1.7-5.8-4.1-7.5c4.5,0,8.3-4.1,8.7-9.1c0-5-4.1-9.1-9.1-9.1
	c-5,0-9.1,4.1-9.1,9.1c0,3.3,1.7,5.8,4.1,7.5c-3.7,0-6.6,2.5-8.3,5.8v-0.8c0-4.9-4.1-9.1-9.1-9.1c-4.5,0-7.9,2.9-8.7,7v-0.4
	c0-5-4.1-8.7-9.1-8.7s-9.1,4.1-9.1,8.7v0.8c-0.8-4.1-4.6-7.4-9.1-7.4c-5,0-9.1,4.1-9.1,9.1v0.8c-1.2-3.3-4.5-5.8-8.3-5.8
	c2.5-1.7,4.5-4.6,4.5-7.5c0-5-4.1-9.1-9.5-9.1c-5,0-9.1,4.1-9.1,9.1c0,5,4.1,8.7,8.7,9.1c-2.5,1.6-4.1,4.1-4.1,7.5
	c0,0.8,0,1.7,0.4,2.5c-0.8-3.3-3.7-5.8-7-6.2c1.2-1.6,2.5-3.3,2.5-5.8c0-5-3.7-8.7-8.7-8.7c-4.5,0-8.7,3.7-8.7,8.7
	c0,4.1,2.9,7.5,6.6,8.3c-1.7,1.7-2.5,3.7-2.5,6.2c0,0.8,0,1.6,0.4,2.5c-0.8-2.5-2.9-4.1-5-5c0.4-0.8,0.8-2.5,0.8-3.7
	c0-4.6-3.7-8.7-8.7-8.7h-0.8c1.7-1.7,2.5-3.7,2.5-6.2c0-5-4.1-9.1-9.1-9.1c-1.2,0-2.1,0.4-2.9,0.4c2.1-1.7,3.7-4.1,3.7-7
	c0-5.4-4.1-9.5-9.5-9.5c-5,0-9.5,4.1-9.5,9.5c0,4.9,4.1,9.5,9.5,9.5c1.2,0,2.1-0.4,3.3-0.8c-2.1,1.7-3.7,4.1-3.7,7
	c0,5,4.1,9.1,9.1,9.1c0.4,0,0.8,0,1.2-0.4c-1.2,1.6-2.5,3.7-2.5,5.8c0,3.3,2.1,6.6,5,7.9c-0.8,1.2-1.2,2.5-1.2,4.1
	c0,2.9,1.6,5.8,3.7,7.5c-0.4,0.8-0.4,1.7-0.4,2.9c0,2.5,0.8,4.9,2.9,6.6c-0.4,1.2-0.8,2.5-0.8,3.7v1.7c0.8,4.5,5,7.9,9.5,7.5
	c5-0.4,8.7-4.2,8.7-9.1c2.1,2.1,4.6,3.7,7.9,3.7c5-0.4,8.7-4.1,8.7-9.1c1.7,2.9,4.5,4.6,7.9,4.6c3.7,0,7-2.1,8.3-5.4
	c1.7,2.5,4.1,4.1,7.5,4.1c3.7,0,6.6-2.1,8.3-4.9c1.7,2.9,4.6,4.5,7.9,4.5c3.3,0,6.2-1.7,7.9-4.5c1.7,2.9,4.6,4.9,8.3,4.9
	c2.9,0,5.8-1.7,7.5-4.1c1.2,3.3,4.5,5.4,8.3,5.4c3.3,0,6.2-1.7,7.9-4.6c0.4,4.6,3.7,8.7,8.7,8.7c3.3,0,5.8-1.3,7.9-3.7
	c0,5,3.7,8.7,8.7,9.1c3.3,0,6.2-1.2,7.9-3.7c1.2-1.6,2.1-3.7,1.7-5.8c0-1.3-0.4-2.5-0.8-3.7c1.7-1.7,2.9-4.1,2.9-6.6
	c0-1.2,0-2.1-0.4-2.9c2.5-1.7,3.7-4.1,3.7-7.4c0-1.7-0.4-2.9-1.2-4.1c2.9-1.2,5-4.1,5-7.9c0-2.1-0.8-4.1-2.5-5.8
	c0.4,0,0.8,0.4,1.2,0.4c5,0,9.1-4.1,9.1-9.1c0-2.9-1.2-5.4-3.3-7c0.8,0.4,2.1,0.8,3.3,0.8c5.4,0,9.5-4.1,9.5-9.5
	C266.2,201,261.6,196.9,256.7,196.9 M260,167.1c0-5.4-4.1-9.5-9.5-9.5c-5.4,0-9.5,4.1-9.5,9.5s4.1,9.5,9.5,9.5S260,172,260,167.1
	 M268.7,175.7c-5.4,0-9.5,4.1-9.5,9.5s4.1,9.5,9.5,9.5c5.4,0,9.5-4.1,9.5-9.5C278.2,180.3,274,175.7,268.7,175.7 M255.8,137.7
	c0,5.8,5,10.4,10.3,10.4c5.8,0,10.8-4.5,10.8-10.4c0-5.8-4.5-10.3-10.8-10.3C260.8,127.3,255.8,131.9,255.8,137.7 M286.9,150.9
	c-5.8,0-10.3,4.5-10.3,10.4c0,5.8,4.6,10.3,10.3,10.3c5.8,0,10.3-4.6,10.3-10.3C297.6,155.5,292.7,150.9,286.9,150.9 M240.1,128.5
	c6.2,0,11.2-4.9,11.2-11.2c0-6.2-5-11.2-10.8-11.2c-6.2,0-11.2,4.5-11.2,10.8C228.9,123.6,233.9,128.5,240.1,128.5 M313,128.1
	c-6.2,0-11.2,5-11.2,11.2c0,6.2,5,11.2,11.2,11.2c6.2,0,11.2-5,11.2-11.2C324.1,133.1,319.2,128.1,313,128.1 M207,111.2
	c6.6,0,12-5,12-11.2c0-6.6-5-12-11.6-12c-6.2,0-11.6,5-11.6,11.6C195.8,105.8,200.8,110.7,207,111.2 M193.7,177
	c5.4,0,9.9-4.1,10.3-9.9c0-5.4-4.1-9.9-9.9-10.4c-5.4,0-10.3,4.1-10.3,9.9S188.4,177,193.7,177 M226.4,160.8
	c5.4,0,10.3-4.6,10.3-9.9s-4.6-9.9-9.9-10.3c-5.4,0-10.4,4.6-10.4,9.9C216.5,156.3,221.1,160.8,226.4,160.8 M199.1,148
	c5.8,0,10.8-4.5,10.8-10.4c0-5.8-4.5-10.8-10.3-10.8s-10.8,4.6-10.8,10.3C188.8,143,193.3,148,199.1,148 M189.6,201.4
	c5.4,0,9.5-4.1,9.9-9.5c0-5.4-4.1-9.5-9.1-9.5c-5.4,0-9.5,4.1-9.9,9.1C180.5,197.3,184.6,201.4,189.6,201.4 M186.7,223.7
	c5.4,0,9.5-4.1,9.9-9.1c0-5.4-4.1-9.5-9.1-9.5c-5.4,0-9.5,4.1-9.9,9.1C177.2,219.6,181.3,223.7,186.7,223.7 M259.6,95.4
	c6.6,0,12-5.4,12.4-12c0-6.6-5.4-12-12-12c-6.6,0-12.4,5.4-12.4,12C247.5,89.6,252.9,95,259.6,95.4 M165.6,53.2
	c7.9,0,14.1-6.2,14.1-14.1c0-7.4-6.6-13.7-14.1-13.7c-7.9,0-14.1,6.2-14.1,14.1C151.5,47,157.7,53.2,165.6,53.2 M-14,471.7v19.9
	h28.1v-19.9h10.3v52.1H14.1v-21.9H-14v21.9h-10.4v-52.1H-14z M43.1,497.8c0-14.5,11.6-27.7,31.9-27.7c20.7,0,31.9,12.8,31.9,27.7
	c0,14.5-11.6,27.7-31.9,27.7C54.7,525.5,43.1,512.2,43.1,497.8z M96.5,497.8c0-9.1-8.7-17.4-21.5-17.4c-12.8,0-21.5,8.3-21.5,17.4
	c0,9.1,8.7,17.4,21.5,17.4C87.8,515.1,96.5,506.9,96.5,497.8z M166.4,471.7V482h-19v41.4H137V482h-19v-10.4
	C118,471.7,166.4,471.7,166.4,471.7z M232.7,471.7V482h-36v9.5h19v10.3h-19v11.2h36.8v10.4h-47.2v-52.2h46.4L232.7,471.7
	L232.7,471.7z M267,471.7v41.8h29.8v10.3h-40.2v-52.1H267L267,471.7z M314.6,507.3c9.1,5.8,17.8,7.9,26.9,7.9c5.4,0,14.1-1.2,14.1-7
	c0-4.1-4.5-5.4-7.9-5.4l-15.7-0.4c-12.8-0.4-19-7.9-19-15.7c0-7.9,5.8-16.2,24.4-16.2c13.7,0,21.9,5.4,25.2,7l-4.5,9.1
	c-4.1-2.1-11.6-5.8-21.9-5.8c-5.4,0-12.4,1.3-12.4,5.8c0,4.1,5.8,5,9.1,5l13.7,0.4c12,0.4,19.4,5.4,19.4,16.5c0,9.5-7.4,17-24.4,17
	c-14.1,0-24.4-3.7-31.9-9.1L314.6,507.3L314.6,507.3z M-3.3,323.5c-5-0.8-12-0.8-16.2-0.8c-14.9,0-27.7,4.5-36.4,13.2
	c-6.6,6.2-10.3,14.9-10.3,24.4c0,9.9,3.7,18.7,10.3,25.7c8.7,8.3,21.1,13.2,35.6,13.2c9.1,0,14.9-0.8,28.1-4.5
	c0.4,0,0.4-0.4,0.4-0.4l1.7-16.1c0-0.4,0-0.4-0.4-0.4H9.1c-5.4,6.6-14.9,10.4-25.7,10.4c-9.5,0-17.4-2.9-22.8-8.3
	c-5-4.9-7.5-11.6-7.5-19.5c0-8.3,2.9-15.3,8.3-20.3c5.4-5.4,13.2-8.3,22.3-8.3c10.3,0,17.8,2.9,22.8,9.1c0,0,0.4,0.4,0.4,0
	c0.4,0,0.4-0.4,0.4-0.4v-18.6c0,0,0-0.4-0.4-0.4H6.7c-1.2,1.7-2.5,2.1-4.5,2.1L-3.3,323.5 M79.5,385.2c2.9,4.6,6.2,7.9,11.2,12.4
	h23.6c0.4,0,0.4,0,0.4-0.4s0-0.4-0.4-0.4c-6.6-2.5-9.1-4.1-14.1-10.8l-8.7-10.4c-0.4-0.8-1.2-1.3-2.1-2.5c-2.1-2.5-4.6-5.8-7.9-8.3
	c17-3.3,19-14.1,19-21.9c0-5-1.7-9.1-5-12.4c-4.5-4.5-12.4-7-23.2-7H34c0,0-0.4,0-0.4,0.4c0,0.4,0,0.4,0.4,0.4
	c7,2.1,7.9,3.3,7.9,10.3v51.8c0,6.6-0.8,7.9-7.5,9.9l-0.4,0.4c0,0.4,0.4,0.4,0.4,0.4H65c0.4,0,0.4,0,0.4-0.4s0-0.4-0.4-0.4
	c-7-2.1-7.9-3.3-7.9-9.9v-20.3h5c2.9,1.3,9.1,7.5,12.4,11.2L79.5,385.2 M57.1,334.7h11.2c6.2,0,11.6,1.7,14.5,4.6
	c1.7,1.6,2.5,3.7,2.5,6.2c0,2.5-0.8,4.6-2.1,5.8c-2.5,2.5-7.5,3.7-14.9,3.7H57.1V334.7z M165.6,321.9c-12,0-22.3,3.7-29.8,10.8
	c-7.5,7-11.6,16.6-11.6,27.7c0,10.4,4.1,20.3,11.2,27.8c7.9,7.8,18.2,12,30.2,12c11.6,0,22.3-4.1,30.2-12c7.5-7.1,11.2-17,11.2-27.8
	c0-10.8-3.7-19.8-10.4-26.9C188.8,326,178,321.9,165.6,321.9 M190,360.8c0,7.9-2.5,14.9-7,19.9c-4.6,5-10.8,7.9-17.8,7.9
	c-6.2,0-11.6-2.5-16.1-6.6c-5.4-5.4-8.3-12.8-8.3-21.1c0-7.9,2.5-14.9,7.9-19.9c4.5-4.5,10.8-7,17-7c6.6,0,12.4,2.1,16.6,6.2
	C187.1,345,190,352.1,190,360.8 M380,323.5c-0.4,0-0.4,0-0.4,0.4c0,0.4,0,0.4,0.4,0.4c5,1.6,5.8,2.9,5.8,10.3v26.1l-32.7-37.3h-22.4
	c0,0-0.4,0-0.4,0.4c0,0.4,0,0.4,0.4,0.4c6.2,2.5,7.9,5.4,7.9,13.2v48.9c0,6.6-0.8,7.9-6.2,9.9c-0.4,0-0.4,0.4-0.4,0.4l0.4,0.4h24.8
	c0,0,0.4,0,0.4-0.4s0-0.4-0.4-0.4c-5.4-2.1-6.2-3.3-6.2-9.9V345l46.4,54.2c0,0,0.4,0.4,0.4,0l0.4-0.4v-63.7c0-7.9,0.4-8.7,5.4-10.8
	c0.4,0,0.4-0.4,0.4-0.4l-0.4-0.4C403.6,323.5,380,323.5,380,323.5z M296,328c0-0.4,0.4-0.8,0.4-0.8c0-0.8-0.4-1.2-2.1-2.5
	c-0.4,0-0.4-0.4-0.4-0.4l0.4-0.4h19.5c0,0,0.4,0,0.4,0.4c0,0.4,0,0.4-0.4,0.4c-3.3,1.2-4.5,2.1-5.8,5l-26.5,69.5
	c0,0.4-0.4,0.4-0.4,0.4h-0.4l-16.2-36.9c-1.7,4.6-14.9,36.9-14.9,36.9l-0.4,0.4c0,0-0.4,0-0.4-0.4l-29.4-69.6
	c-1.2-2.9-2.1-3.7-5.8-4.9l-0.4-0.4l0.4-0.4h23.6c0,0,0.4,0,0.4,0.4c0,0.4,0,0.4-0.4,0.4c-1.7,0.8-2.1,1.6-2.1,2.5
	c0,0.4,14.9,37.3,14.9,37.3l7-18.2l-7-17c-1.7-2.5-2.5-2.9-5.8-4.5l-0.4-0.4c0-0.4,0-0.4,0.4-0.4h17c0,0,0.4,0,0.4,0.4l3.3,8.3
	l3.3-8.3c0-0.4,0.4-0.4,0.4-0.4h14.5c0.4,0,0.4,0,0.4,0.4c0,0.4,0,0.4-0.4,0.4c-3.7,1.2-5.8,2.9-6.6,4.9l-3.3,12l9.1,22.3L296,328
	 M119.7,209.3c5,0,9.1-4.1,9.1-9.1c0-5-4.1-9.1-9.1-9.1s-9.1,4.1-9.1,9.1C110.5,205.5,114.7,209.7,119.7,209.3 M122.1,177.8
	c0-5.4-4.5-9.5-9.5-9.5c-5.4,0-9.5,4.5-9.5,9.5c0,5.4,4.5,9.5,9.9,9.5C118,187.3,122.1,183.2,122.1,177.8 M100.2,219.6
	c5,0,8.7-3.7,8.7-8.7c0-4.5-3.7-8.7-8.7-8.7c-4.6,0-8.7,3.7-8.7,8.7C91.5,215.9,95.2,219.6,100.2,219.6 M91.1,200.2
	c5,0,9.1-4.1,9.1-9.1c0-5-4.1-9.1-9.1-9.1c-5,0-9.1,4.1-9.1,9.1C82,196,86.1,200.2,91.1,200.2 M90.3,167.1c0-5.4-4.1-9.5-9.5-9.5
	s-9.5,4.1-9.5,9.5s4.1,9.5,9.5,9.5C85.7,176.6,90.3,172,90.3,167.1 M72,185.3c0-5.4-4.1-9.5-9.5-9.5s-9.5,4.1-9.5,9.5
	s4.1,9.5,9.5,9.5C67.5,195.2,72,190.6,72,185.3 M64.6,148c5.8,0,10.3-4.5,10.3-10.4c0-5.8-4.5-10.3-10.3-10.3s-10.3,4.5-10.3,10.3
	C53.8,143.5,58.8,148,64.6,148 M43.9,150.9c-5.8,0-10.3,4.5-10.3,10.4c0,5.8,4.6,10.3,10.3,10.3c5.8,0,10.4-4.6,10.4-10.3
	C54.7,155.5,49.7,150.9,43.9,150.9 M79.9,117.4c0,6.2,5,11.2,11.2,11.2c6.2,0,11.2-4.9,10.8-11.2c0-6.2-5-11.2-11.2-10.8
	C84.9,106.6,79.9,111.6,79.9,117.4 M17.8,128.1c-6.2,0-11.2,5-11.2,11.2c0,6.2,5,11.2,11.2,11.2s11.2-5,11.2-11.2
	C29,133.1,24,128.1,17.8,128.1 M123.8,111.2c6.6,0,11.6-5.4,11.2-12c0-6.2-5.4-11.6-11.6-11.6c-6.2,0-11.6,5.4-11.2,12
	C112.2,106.2,117.6,111.2,123.8,111.2 M165.6,76c-7,0-12.8,5.8-12.8,12.8s5.8,12.8,12.8,12.8c7,0,12.8-5.8,12.8-12.8
	S172.6,76,165.6,76 M165.6,117c-6.6,0-11.6,5.4-11.6,11.6c0,6.6,5.4,11.6,11.6,11.6c6.6,0,11.6-5,11.6-11.6
	C177.2,122.4,171.8,117,165.6,117 M165.6,149.2c-6.2,0-11.2,5-11.2,11.2c0,6.2,5,11.2,11.2,11.2s11.2-5,11.2-11.2
	C176.8,154.2,171.8,149.2,165.6,149.2 M127.1,167.5c0,5.4,4.5,9.9,10.3,9.9c5.4,0,9.9-5,9.9-10.3c0-5.4-4.5-9.9-10.3-9.9
	C131.2,157.1,127.1,161.7,127.1,167.5 M94.4,150.9c0,5.4,4.5,9.9,9.9,9.9c5.8,0,9.9-4.6,9.9-9.9s-4.5-9.9-9.9-9.9
	C98.5,140.6,94,145.5,94.4,150.9 M121.3,137.7c0,5.8,5,10.4,10.8,10.4c5.8,0,10.4-5,10.4-10.8s-5-10.3-10.8-10.3
	C125.9,127.3,120.9,131.9,121.3,137.7 M131.7,192.3c0,5.4,4.5,9.5,9.9,9.5s9.5-4.6,9.1-9.9c0-5.4-4.5-9.5-9.5-9.1
	C135.4,182.8,131.2,186.9,131.7,192.3 M135,214.7c0,5.4,4.5,9.5,9.5,9.1c5.4,0,9.5-4.6,9.1-9.5c0-5.4-4.5-9.5-9.9-9.1
	C138.7,205.1,134.5,209.3,135,214.7 M165.6,176.6c-5.8,0-10.8,4.6-10.8,10.4s4.5,10.3,10.8,10.3c5.8,0,10.3-4.5,10.3-10.3
	S171.4,176.6,165.6,176.6 M165.6,201.4c-5.4,0-9.9,4.6-9.9,9.9c0,5.4,4.5,9.9,9.9,9.9s9.9-4.5,9.9-9.9
	C175.5,206,171,201.4,165.6,201.4 M71.2,95.4c6.6,0,12-5.4,12-12.4c0-6.6-5.4-12-12.4-12c-6.6,0-12,5.4-12,12
	C59.2,90.1,64.6,95.4,71.2,95.4 M211.5,191.5c-5,0-9.1,4.1-9.1,9.1c0,5,4.1,9.1,9.1,9.1s9.1-3.7,9.1-9.1
	C220.7,195.6,216.5,191.5,211.5,191.5 M228.1,178.2c0-5.4-4.1-9.5-9.5-9.5s-9.5,4.1-9.5,9.5s4.1,9.5,9.5,9.5
	C223.5,187.7,227.7,183.2,228.1,178.2 M231,219.6c5,0,8.7-3.7,8.7-8.7c0-4.5-3.7-8.7-8.7-8.7c-5,0-8.7,3.7-8.7,8.7
	C222.3,215.9,226,219.6,231,219.6 M248.8,191c0-5-4.1-9.1-9.1-9.1s-9.1,4.1-9.1,9.1c0,5,4.1,9.1,9.1,9.1
	C245.1,200.2,248.8,196,248.8,191 M256.7,196.9c-5.4,0-9.5,4.1-9.5,9.5c0,2.9,1.7,5.4,3.7,7c-0.8-0.4-1.6-0.4-2.9-0.4
	c-5,0-9.1,4.1-9.1,9.1c0,2.5,0.8,4.5,2.5,6.2h-0.8c-4.5,0-8.7,3.7-8.7,8.7c0,1.2,0.4,2.5,0.8,3.7c-2.1,0.8-4.1,2.5-5,5
	c0.4-0.8,0.4-1.7,0.4-2.5c0-2.5-1.2-4.6-2.5-6.2c4.1-0.8,6.6-4.1,6.6-8.3c0-5-3.7-8.7-8.7-8.7c-4.5,0-8.7,3.7-8.7,8.7
	c0,2.1,0.8,4.1,2.1,5.8c-3.3,0.8-5.8,2.9-6.6,5.8v-2.1c0-3.3-1.7-5.8-4.1-7.5c4.5,0,8.3-4.1,8.7-9.1c0-5-4.1-9.1-9.1-9.1
	c-5,0-9.1,4.1-9.1,9.1c0,3.3,1.7,5.8,4.1,7.5c-3.7,0-6.6,2.5-8.3,5.8v-0.8c0-4.9-4.1-9.1-9.1-9.1c-4.5,0-7.9,2.9-8.7,7v-0.4
	c0-5-4.1-8.7-9.1-8.7s-9.1,4.1-9.1,8.7v0.8c-0.8-4.1-4.6-7.4-9.1-7.4c-5,0-9.1,4.1-9.1,9.1v0.8c-1.2-3.3-4.5-5.8-8.3-5.8
	c2.5-1.7,4.5-4.6,4.5-7.5c0-5-4.1-9.1-9.5-9.1c-5,0-9.1,4.1-9.1,9.1c0,5,4.1,8.7,8.7,9.1c-2.5,1.6-4.1,4.1-4.1,7.5
	c0,0.8,0,1.7,0.4,2.5c-0.8-3.3-3.7-5.8-7-6.2c1.2-1.6,2.5-3.3,2.5-5.8c0-5-3.7-8.7-8.7-8.7c-4.5,0-8.7,3.7-8.7,8.7
	c0,4.1,2.9,7.5,6.6,8.3c-1.7,1.7-2.5,3.7-2.5,6.2c0,0.8,0,1.6,0.4,2.5c-0.8-2.5-2.9-4.1-5-5c0.4-0.8,0.8-2.5,0.8-3.7
	c0-4.6-3.7-8.7-8.7-8.7h-0.8c1.7-1.7,2.5-3.7,2.5-6.2c0-5-4.1-9.1-9.1-9.1c-1.2,0-2.1,0.4-2.9,0.4c2.1-1.7,3.7-4.1,3.7-7
	c0-5.4-4.1-9.5-9.5-9.5c-5,0-9.5,4.1-9.5,9.5c0,4.9,4.1,9.5,9.5,9.5c1.2,0,2.1-0.4,3.3-0.8c-2.1,1.7-3.7,4.1-3.7,7
	c0,5,4.1,9.1,9.1,9.1c0.4,0,0.8,0,1.2-0.4c-1.2,1.6-2.5,3.7-2.5,5.8c0,3.3,2.1,6.6,5,7.9c-0.8,1.2-1.2,2.5-1.2,4.1
	c0,2.9,1.6,5.8,3.7,7.5c-0.4,0.8-0.4,1.7-0.4,2.9c0,2.5,0.8,4.9,2.9,6.6c-0.4,1.2-0.8,2.5-0.8,3.7v1.7c0.8,4.5,5,7.9,9.5,7.5
	c5-0.4,8.7-4.2,8.7-9.1c2.1,2.1,4.6,3.7,7.9,3.7c5-0.4,8.7-4.1,8.7-9.1c1.7,2.9,4.5,4.6,7.9,4.6c3.7,0,7-2.1,8.3-5.4
	c1.7,2.5,4.1,4.1,7.5,4.1c3.7,0,6.6-2.1,8.3-4.9c1.7,2.9,4.6,4.5,7.9,4.5c3.3,0,6.2-1.7,7.9-4.5c1.7,2.9,4.6,4.9,8.3,4.9
	c2.9,0,5.8-1.7,7.5-4.1c1.2,3.3,4.5,5.4,8.3,5.4c3.3,0,6.2-1.7,7.9-4.6c0.4,4.6,3.7,8.7,8.7,8.7c3.3,0,5.8-1.3,7.9-3.7
	c0,5,3.7,8.7,8.7,9.1c3.3,0,6.2-1.2,7.9-3.7c1.2-1.6,2.1-3.7,1.7-5.8c0-1.3-0.4-2.5-0.8-3.7c1.7-1.7,2.9-4.1,2.9-6.6
	c0-1.2,0-2.1-0.4-2.9c2.5-1.7,3.7-4.1,3.7-7.4c0-1.7-0.4-2.9-1.2-4.1c2.9-1.2,5-4.1,5-7.9c0-2.1-0.8-4.1-2.5-5.8
	c0.4,0,0.8,0.4,1.2,0.4c5,0,9.1-4.1,9.1-9.1c0-2.9-1.2-5.4-3.3-7c0.8,0.4,2.1,0.8,3.3,0.8c5.4,0,9.5-4.1,9.5-9.5
	C266.2,201,261.6,196.9,256.7,196.9 M260,167.1c0-5.4-4.1-9.5-9.5-9.5c-5.4,0-9.5,4.1-9.5,9.5s4.1,9.5,9.5,9.5S260,172,260,167.1
	 M268.7,175.7c-5.4,0-9.5,4.1-9.5,9.5s4.1,9.5,9.5,9.5c5.4,0,9.5-4.1,9.5-9.5C278.2,180.3,274,175.7,268.7,175.7 M255.8,137.7
	c0,5.8,5,10.4,10.3,10.4c5.8,0,10.8-4.5,10.8-10.4c0-5.8-4.5-10.3-10.8-10.3C260.8,127.3,255.8,131.9,255.8,137.7 M286.9,150.9
	c-5.8,0-10.3,4.5-10.3,10.4c0,5.8,4.6,10.3,10.3,10.3c5.8,0,10.3-4.6,10.3-10.3C297.6,155.5,292.7,150.9,286.9,150.9 M240.1,128.5
	c6.2,0,11.2-4.9,11.2-11.2c0-6.2-5-11.2-10.8-11.2c-6.2,0-11.2,4.5-11.2,10.8C228.9,123.6,233.9,128.5,240.1,128.5 M313,128.1
	c-6.2,0-11.2,5-11.2,11.2c0,6.2,5,11.2,11.2,11.2c6.2,0,11.2-5,11.2-11.2C324.1,133.1,319.2,128.1,313,128.1 M207,111.2
	c6.6,0,12-5,12-11.2c0-6.6-5-12-11.6-12c-6.2,0-11.6,5-11.6,11.6C195.8,105.8,200.8,110.7,207,111.2 M193.7,177
	c5.4,0,9.9-4.1,10.3-9.9c0-5.4-4.1-9.9-9.9-10.4c-5.4,0-10.3,4.1-10.3,9.9S188.4,177,193.7,177 M226.4,160.8
	c5.4,0,10.3-4.6,10.3-9.9s-4.6-9.9-9.9-10.3c-5.4,0-10.4,4.6-10.4,9.9C216.5,156.3,221.1,160.8,226.4,160.8 M199.1,148
	c5.8,0,10.8-4.5,10.8-10.4c0-5.8-4.5-10.8-10.3-10.8s-10.8,4.6-10.8,10.3C188.8,143,193.3,148,199.1,148 M189.6,201.4
	c5.4,0,9.5-4.1,9.9-9.5c0-5.4-4.1-9.5-9.1-9.5c-5.4,0-9.5,4.1-9.9,9.1C180.5,197.3,184.6,201.4,189.6,201.4 M186.7,223.7
	c5.4,0,9.5-4.1,9.9-9.1c0-5.4-4.1-9.5-9.1-9.5c-5.4,0-9.5,4.1-9.9,9.1C177.2,219.6,181.3,223.7,186.7,223.7 M259.6,95.4
	c6.6,0,12-5.4,12.4-12c0-6.6-5.4-12-12-12c-6.6,0-12.4,5.4-12.4,12C247.5,89.6,252.9,95,259.6,95.4 M165.6,53.2
	c7.9,0,14.1-6.2,14.1-14.1c0-7.4-6.6-13.7-14.1-13.7c-7.9,0-14.1,6.2-14.1,14.1C151.5,47,157.7,53.2,165.6,53.2"/>
</svg>
