<?xml version="1.0" encoding="utf-8"?>
<!-- Generator: Adobe Illustrator 19.2.1, SVG Export Plug-In . SVG Version: 6.00 Build 0)  -->
<svg version="1.1" id="layer" xmlns="http://www.w3.org/2000/svg" xmlns:xlink="http://www.w3.org/1999/xlink" x="0px" y="0px"
	 viewBox="0 0 652 652" style="enable-background:new 0 0 652 652;" xml:space="preserve">
<style type="text/css">
	.st0{fill:#034EA0;}
	.st1{fill:#231F20;}
	.st2{fill:#4D72B6;}
	.st3{fill:#FFFFFF;}
</style>
<g id="Layer_2">
	<g id="Layer_1-2">
		<g id="Layer_2-2">
			<g id="Layer_1-2-2">
				<path class="st0" d="M93.2,392.5c1.3-1.9,3.3-3.1,5.6-3.4c103.5-30.6,211.6-43.2,319.4-37.3c0,0,10.3-0.4,7.5,4.2
					c-1.7,2.6-4.7,2.8-10.6,3.1c-3.2,0.3-6.5,0.3-9.8,0.2c0,0,18.6,7.3-54.9,5.8c0,0,6.5,6.6-20.6,4.7c0,0-75.4-3.4-227.9,24.2
					c0,0-12,2.6-8.6-1.5"/>
				<path class="st1" d="M496.8,330.2c0,0,21.3,17.6-5.1,16.7c0,0-5.1,0.4-8.3-10.2c0,0-9.2-20.8-8.4-28.6
					c-3.6,4.2-6.5,8.8-8.8,13.8c-1.3,3.1-2.8,6.1-4.7,9c-1.1,1.7-2.3,3.2-3.7,4.6c-11.7,10.8-12.8-3.1-12.8-3.1
					c-0.8-10.4,0.4-20.9,3.6-30.8c4.4-13.1,10.9-7.7,10.9-7.7c4.2,0.8,6.9,4.9,6.1,9.1c-0.1,0.7-0.4,1.5-0.8,2.1
					c-1.9,6.6-3.6,5.2-3.6,5.2c-1.9,1.7-3.1,4.1-3.1,6.6c0,0-0.8,7.3,2.4,1.7c2.6-5.9,6.3-11.3,10.7-16c0,0,5.1-5.4,8.1-1
					c0,0,12.9,25.8,17.5,28.7 M131.9,385.9c5.4,7.6,9.6,13,8.5,14c-3.7,3.2-20.4-9.8-20.4-9.8c-19.8-16.8-35.2-38.2-44.8-62.3
					c-0.2-0.7-0.1-1.5,0.4-2.1c1-1.1,2.6-1.7,6.8-2.2l0,0c-2.2-1.1-2.9-1.4-2.7-2.1c0.2-0.7,4.5-1.2,4.5-1.2c3.1,0,5.5-0.3,5.5-0.3
					c4.7-0.5,7.1-1,7.1-1c5.2-0.5,10.1-2.6,14-6c9.9-10.1-6.2-20.2-6.2-20.2c-40.4-23.2-73-12.3-73-12.3c-1.6,0.5-3.3,0.5-4.9-0.1
					c-4.2-1.4,3.3-7.4,3.3-7.4c20-16.6,30.6-11.6,30.6-11.6c39,2.6,56.1,23,56.1,23c13.6,14.4,10.1,25.8,8.2,29.1
					c-5,7.5-13.4,12.1-22.4,12.3c-2.5,0-4.6,0.2-6.5,0.2c1.3,1.7,2.3,3.6,3.1,5.7c3.1,9.5,32.7,54,32.7,54 M79.6,288.2
					c1.1,3.4,0.8,7.1-0.7,10.3c-12.6,25.8-28.4,86.8-31.6,99.2l0,0l-0.2,0.7l-0.4,1.7c-0.2,0.9-0.4,1.8-0.6,2.5
					c-0.4,2.3-0.5,4.7-0.4,7l0,0c0,3.3,0,6.7-1,7.1c-2.8,1.3-4.3-2.5-5.1-6.6c-2.1-0.8-3.9-2.3-5.1-4.2c-10.3-6.8-2.7-25.9-2.7-25.9
					c7-27.7,41.4-85.8,41.4-85.8c4-6.5,5.7-7.3,6.5-5.9 M158.9,342.4c-0.9,1.8-2.3,3.3-3.9,4.3c0,0-11.4,7-11-2.9
					c0.3-3.6,1.1-7.1,2.2-10.5c3.1-7.8,7.7-14.9,13.4-21.1c0.7-0.7,1.4-0.8,1.8-0.2c0.8,1.5,1.5,3.1,2.2,4.8
					c0.2,0.4,0.5,0.8,0.7,1.2c-1.7,7.1-3,14.3-3.9,21.5C160.1,340.5,159.5,341.4,158.9,342.4 M188.9,338c0-0.2-0.2-0.4-0.3-0.6
					c-0.7-0.5-4.4,1.1-8.1,3.4l-1.6,0.9c-1.1,0.6-2.1,1.4-3.1,2.1c0,0-2.3,1.9-2.1-2.3v-0.2l0,0c0-1,0.2-2.1,0.3-3.4
					c0,0,3.2-12.9,4.6-16.5c0,0,0.8-3.4,2-7.3c0,0,5.5-5.7-4.6-7.6c0,0-4.8-11.9-10,6.8l0,0c-0.6-2.7-2.4-4.9-4.9-6.2
					c-0.7-0.4-1.5-0.6-2.4-0.6c-0.5,0-1,0-1.6,0c0,0-4.8-1.7-10,4.8s-21.5,25.4-17.9,41.5c0,0,2,8.4,9.4,8.3
					c6.4-0.2,12.5-2.6,17.3-6.9c1.7-1.5,3.2-3.2,4.6-4.9c0.1,1,0.3,2.1,0.5,3.1c0,0.2,0,0.4,0,0.6c0.2,1.3,0.9,2.4,1.8,3.3
					c1.6,1.4,3.8,1.9,5.8,1.4l0.9-0.2c0,0,10.4-2.5,10.2-6.9c0-2.2,0.7-2.6,0.7-2.6c0.4-0.2,0.6-0.7,0.4-1.1c0,0,8.3-5.6,8-9.1
					 M368.8,302.4c4.6,3.2,12.3,10.4,11.1,17.9c0,0-2.2,16.9-30.2,16.3c0,0-3.1-0.2-3.1-2c0-1.4,0.6-2.5,3.1-3.4
					c0,0,18.2-5.9,6.2-27.7l-10.8,8.4c0,0-4.4,4.9-4.1-2c0.2-1.9,0.8-3.7,2-5.3c5.9-3.6,10.6-9,13.5-15.4
					c1.7-6.2,10.7-11.4,11.6-6.2c0.4,2.3-2.3,3.8-3.6,5.5C361.4,292.2,365.3,300.2,368.8,302.4 M409.2,289.7
					c4.9-6.4,8.3-3.5,8.3-3.5s1.4,0,1.8,0c6.5-0.5,1.2,5.9,1.2,5.9c-4.2,6.7-7.7,13.8-10.4,21.2c-1,2.7-1.8,5.4-2.4,8.2
					c-2,8.4,6.9,2.5,6.9,2.5c1.1-0.8,2.1-1.8,3.1-2.7c0.5-0.5,1.2-0.9,1.9-1.1c1.8-0.2-1.3-9.9-1.3-9.9c-1.4-3.8-1.1-4-1.1-4
					c-0.9-4.7,1.7-5.9,1.7-5.9c2.8-1.7,5,2.7,5,2.7c2.1,4.4,3.7,9,4.7,13.8c2.1,8.8-4.5,8.1-4.5,8.1c-2.8,1.2-5.3,3-7.4,5.2
					c-5.1,3.8-11.1,6.1-17.4,6.6c-4.3,0.8-8.4-2.1-9.1-6.4c-0.1-0.7-0.2-1.4-0.1-2.1c0-9.6,19.3-38.4,19.3-38.4 M293.5,267.3
					c-0.2,2.4-1.5,4.6-3.6,6c-2.7,2.1-8.4,5.6-10.2,5.1c-1.8-0.5,0.2-6.2,0.3-7.9c0-1.6,0.2-3.3,0.5-4.9c0.1-3.6,3.2-6.5,6.8-6.4
					c3.6,0.1,6.5,3.2,6.4,6.8C293.6,266.4,293.6,266.8,293.5,267.3 M317.8,293.2c0,0,16.4,17.5,15.8,29.6c0,0-2.2,16.9-30.2,16.3
					c0,0-6.9-1,0-5.4c0,0,18.2-5.9,6.2-27.7c0,0-11.2,13.2-18.7,20.5l0,0c-21.2,20.8-25.4,13.2-25.4,13.2
					c-8.1-11.6-2.2-36.9-2.2-36.9c3.1-13.4,10.1-8.7,10.1-8.7c4,0.1,7.2,3.3,7.1,7.3c0,1.1-0.3,2.2-0.8,3.1c-1.3,6.7-3.1,6-3.1,6
					c-3.1,2.5-3.8,13.6-3.8,13.6c1.3,6.2-4.2,14.6,11.6,1c3.8-3.8,22.6-25,25.6-33.4C310.1,291.7,313.2,283.6,317.8,293.2
					 M212.8,335.3c0,0-2.1-1.4-2-7.7c0.7-7.1,3.5-13.9,8-19.5c0,0,2.1-2.6,3.8-3.1c0.6,0,1.5,0.7,1.9,4c0,0.8-2.2,1-1.4,3.6
					c0,0,3.9,9.9,12.3,5.4c-0.3,2.1-0.7,4.1-1.1,6.2c-4.3,6-13.4,16.3-21.4,10.9 M248,242c0,0-9.1-11.4-7.5,1.8
					c0.5,20.6-0.6,41.3-3.3,61.8c-0.6-1.4-1.3-2.8-2.2-4c0,0-7.9-10.6-16.8-7.6c-8.7,4-15.2,11.5-17.9,20.6
					c-2.6,6.6-3.7,13.6-3.3,20.7c0,0-0.4,23.4,28,6.8c2.4-1.5,4.6-3.4,6.6-5.4c-0.9,2.5-1.6,5.2-1.9,7.8c0,0-1,6.2,1.8,7.7
					c1.1,0.6,2.2-0.2,4.7-6.2c0,0,20.2-51.8,21.3-73.3C257.6,272.7,264.7,262.1,248,242"/>
				<path class="st0" d="M438.1,352.9c5.6,0.3,11.8,0.4,20.5,1.3c4.5,0.4,11.5,0.4,12.3,3.4s-2.3,5.5-8.5,6.6c-2.5,0.7-5.2,1-7.8,1
					c-3.3,0-10.3,0-10.5-3.6c0-2.4-4.7-2.3-7.8-2.5c-6.2-0.2-5.5-2-4.2-4.1C433,353.7,434.6,352.9,438.1,352.9"/>
				<path class="st0" d="M520.9,256.6h101.5c1.7,0,3.1,1.4,3.1,3.1v101.5c0,1.7-1.4,3.1-3.1,3.1H520.9c-1.7,0-3.1-1.4-3.1-3.1V259.8
					c-0.1-1.7,1.2-3.1,2.9-3.2C520.8,256.6,520.8,256.6,520.9,256.6z"/>
				<path class="st2" d="M611.9,325.5c-1.4-4.1-2.2-8.4-2.3-12.7c-3.8,8.4-9.5,21.5-15.9,20.4c-3.8-0.6-4.1-7.3-3.1-13.7
					c-2.1,5.2-4.8,10.1-8.1,14.6l-0.7,0.8c-1.1,1.4-2.5,2.6-4.1,3.3h-0.5c-0.5,0.1-1.1,0.1-1.6,0c-1.3-0.4-2.5-1.7-3.6-4.1
					c-0.2-0.4-0.4-0.9-0.5-1.4c0-0.6-0.2-1.3-0.3-1.9c-1.1,1.8-2.3,3.5-3.8,5c-4.4,4.4-9.8,7.6-15.7,9.2c-5.6,2.1-11.7,2.2-17.3,0.2
					c-5-2.8-6.8-9.1-4-14.1c0,0,0,0,0,0l0,0c0.9-2,1.4-0.8,1.1,1.5c-0.1,0.8-0.2,1.6-0.3,2.5c-0.4,13.7,20.7,7.2,26.6,3.8
					c3-1.7,5.8-3.9,8.2-6.5c3-3.4,4.9-7.7,5.4-12.3c1.2-10.2-11.5-10.2-17.5-9.9c-0.2,0-0.4,0-0.6,0c-0.7,1.9-1.4,3.7-2.1,5.5
					c-1.4,3.6-2.8,6.6-4.2,10.1c-1.3,3.3-2.9,6.4-4.9,9.4c-1.1,1.5-2,1-1.9-0.8c0.5-3.4,1.5-6.7,3.1-9.7c1.4-3.3,2.8-6.6,4.2-9.8
					c2.9-6.5,5.2-13.2,6.9-20.1c0.1-0.8,0.9-1.4,1.8-1.3c0.8,0.1,1.4,0.9,1.3,1.8l0,0c-0.4,2.5-0.9,4.9-1.6,7.3
					c2-2.6,3.9-5.3,5.6-8.1c1.7-2.9,5.3-10.7,0.8-13c-3.7-1.9-8.7,1.2-11.6,3.5c-3.6,2.8-6.7,6.2-9.2,10c-1.2,1.5-2,0.6-1.4-0.6
					c2.6-4.8,6.2-8.9,10.5-12.1c3.6-2.7,9.5-6.4,13.8-3.3c4.9,3.5,3.1,10.8,0.7,15.4c-2.4,4.3-5,8.4-7.9,12.3
					c6.1-0.9,12.3,1.4,16.3,6.2c0.3,0.6,0.6,1.2,0.9,1.8c1.5-3.9,3.1-7.2,4.2-9.8c3.3-7.8,7.4-15.2,12.3-22.1c0.8-1.2,2,0,1.3,1.4
					c-7.3,11.8-12.9,24.5-16.6,37.9c-0.3,1.1-0.5,2.2-0.6,2.8l0,0c-0.5,2.6-0.3,5.3,0.6,7.7c0.2,0.4,0.4,0.7,0.7,0.9l0,0
					c1.4,1.1,3.1-0.9,4.1-2.1c2.4-3.1,4.5-6.4,6.2-9.9c3.2-6,5.8-12.3,7.8-18.9c0.6-2.1,3.1-1.6,3.1,0.7c-0.4,3.8-1,7.5-1.9,11.1
					c-0.5,2.6-3.7,17.9,1.3,13.2c5.4-6.2,9.7-13.3,12.7-21c0.6-1.4,2.4-1.1,2.6,0.6c0.3,5.5,1.2,11,2.6,16.4
					c0.8,2.5-1.7,4.3-2.7,1.9"/>
				<path class="st3" d="M617.7,298.9v19.6c0,6.2-3.7,7.4-9.7,7.4h-11.5c-6,0-9.7-1.2-9.7-7.4v-19.6h7.8v20c0,1.9,0.3,3.1,4.2,3.1
					h10.7c4,0,4.3-1.3,4.3-3.1v-20H617.7z M567.7,322H583v3.8h-19.3v-23h3.8L567.7,322z M533,314.3h14.7c3.1,1.4,3.8,1.9,4.6,4.1
					v1.7c-0.7,1.5-1.3,2.4-4.1,1.9H533L533,314.3z M552.2,309.4c-1.6,1-2,2.2-4.5,4.8H533v-7.7h15c0.4-1,2.6-1,4.3,0.7V309.4z
					 M554,313.1c1.3-0.7,2.1-2.1,2.1-3.6v-0.8c0-2.2-0.9-6-7-6h-20v23.1H549c4.3,0,7.1-2.1,7.1-5.3V318c0.2-2.1-1.1-4.2-3.1-4.9"/>
			</g>
		</g>
	</g>
</g>
</svg>
